<svg width="106" height="98" viewBox="0 0 106 98" fill="none" xmlns="http://www.w3.org/2000/svg">
<g filter="url(#filter0_di_0_5)">
<path d="M67.9912 41.565C67.7637 35.6925 62.8837 31 57.0075 31C54.9634 31.0003 52.9597 31.5696 51.2207 32.644C49.4817 33.7185 48.0761 35.2558 47.1613 37.0837C46.4009 38.5992 46.0033 40.2707 46 41.9663C46.0039 42.2239 45.9104 42.4735 45.7382 42.6652C45.566 42.8568 45.3278 42.9764 45.0712 43C44.9341 43.0098 44.7963 42.9912 44.6667 42.9453C44.537 42.8995 44.4182 42.8274 44.3176 42.7335C44.2171 42.6397 44.137 42.5261 44.0823 42.3999C44.0277 42.2737 43.9997 42.1375 44 42C43.9989 40.6013 44.2244 39.2116 44.6675 37.885C44.6967 37.7999 44.7024 37.7086 44.684 37.6205C44.6657 37.5325 44.6239 37.451 44.5631 37.3848C44.5023 37.3185 44.4248 37.2698 44.3387 37.2439C44.2525 37.218 44.161 37.2158 44.0738 37.2375C42.341 37.6694 40.8023 38.6678 39.7018 40.0742C38.6014 41.4805 38.0024 43.2143 38 45C38 49.3988 41.7188 53 46.125 53H57C58.4807 52.9984 59.9459 52.6982 61.3079 52.1173C62.6699 51.5364 63.9007 50.6868 64.9268 49.6193C65.9529 48.5518 66.7531 47.2883 67.2797 45.9044C67.8062 44.5205 68.0482 43.0446 67.9912 41.565ZM61.7075 40.7075L55.7075 46.7075C55.6146 46.8005 55.5043 46.8742 55.3829 46.9246C55.2615 46.9749 55.1314 47.0008 55 47.0008C54.8686 47.0008 54.7385 46.9749 54.6171 46.9246C54.4957 46.8742 54.3854 46.8005 54.2925 46.7075L51.2925 43.7075C51.1049 43.5199 50.9994 43.2654 50.9994 43C50.9994 42.7346 51.1049 42.4801 51.2925 42.2925C51.4801 42.1049 51.7346 41.9994 52 41.9994C52.2654 41.9994 52.5199 42.1049 52.7075 42.2925L55 44.5863L60.2925 39.2925C60.3854 39.1996 60.4957 39.1259 60.6171 39.0756C60.7385 39.0253 60.8686 38.9994 61 38.9994C61.1314 38.9994 61.2615 39.0253 61.3829 39.0756C61.5043 39.1259 61.6146 39.1996 61.7075 39.2925C61.8004 39.3854 61.8741 39.4957 61.9244 39.6171C61.9747 39.7385 62.0006 39.8686 62.0006 40C62.0006 40.1314 61.9747 40.2615 61.9244 40.3829C61.8741 40.5043 61.8004 40.6146 61.7075 40.7075Z" fill="url(#paint0_linear_0_5)"/>
</g>
<defs>
<filter id="filter0_di_0_5" x="0" y="0" width="106" height="98" filterUnits="userSpaceOnUse" color-interpolation-filters="sRGB">
<feFlood flood-opacity="0" result="BackgroundImageFix"/>
<feColorMatrix in="SourceAlpha" type="matrix" values="0 0 0 0 0 0 0 0 0 0 0 0 0 0 0 0 0 0 127 0" result="hardAlpha"/>
<feOffset dy="3.5"/>
<feGaussianBlur stdDeviation="9.5"/>
<feComposite in2="hardAlpha" operator="out"/>
<feColorMatrix type="matrix" values="0 0 0 0 0.281906 0 0 0 0 0.251319 0 0 0 0 0.320833 0 0 0 1 0"/>
<feBlend mode="normal" in2="BackgroundImageFix" result="effect1_dropShadow_0_5"/>
<feBlend mode="normal" in="SourceGraphic" in2="effect1_dropShadow_0_5" result="shape"/>
<feColorMatrix in="SourceAlpha" type="matrix" values="0 0 0 0 0 0 0 0 0 0 0 0 0 0 0 0 0 0 127 0" result="hardAlpha"/>
<feOffset dx="1" dy="1"/>
<feGaussianBlur stdDeviation="1"/>
<feComposite in2="hardAlpha" operator="arithmetic" k2="-1" k3="1"/>
<feColorMatrix type="matrix" values="0 0 0 0 0 0 0 0 0 0 0 0 0 0 0 0 0 0 0.25 0"/>
<feBlend mode="normal" in2="shape" result="effect2_innerShadow_0_5"/>
</filter>
<linearGradient id="paint0_linear_0_5" x1="52.9997" y1="31" x2="52.9997" y2="53" gradientUnits="userSpaceOnUse">
<stop stop-color="white"/>
<stop offset="1" stop-color="#57575F"/>
</linearGradient>
</defs>
</svg>
