<svg width="106" height="99" viewBox="0 0 106 99" fill="none" xmlns="http://www.w3.org/2000/svg">
<g filter="url(#filter0_di_0_4)">
<path d="M61.3268 51.8352C61.4506 51.9824 61.5297 52.1618 61.555 52.3525C61.5802 52.5431 61.5504 52.737 61.4692 52.9113C61.3879 53.0856 61.2586 53.2331 61.0964 53.3363C60.9341 53.4396 60.7458 53.4943 60.5535 53.4941H39.3597C39.1675 53.4941 38.9793 53.4392 38.8172 53.3358C38.6552 53.2325 38.526 53.085 38.4449 52.9107C38.3638 52.7365 38.3342 52.5427 38.3594 52.3522C38.3847 52.1616 38.4639 51.9823 38.5876 51.8352C40.4723 49.5922 42.8163 47.9989 45.4213 47.1461C43.8393 46.1607 42.6211 44.6869 41.9513 42.9475C41.2814 41.2082 41.1963 39.298 41.7087 37.506C42.2211 35.714 43.3033 34.1376 44.7914 33.0154C46.2795 31.8931 48.0927 31.2861 49.9566 31.2861C51.8204 31.2861 53.6336 31.8931 55.1217 33.0154C56.6098 34.1376 57.692 35.714 58.2044 37.506C58.7168 39.298 58.6317 41.2082 57.9618 42.9475C57.292 44.6869 56.0739 46.1607 54.4918 47.1461C57.0968 47.9989 59.4408 49.5922 61.3268 51.8352ZM67.5146 46.6818C67.4259 46.8355 67.2983 46.963 67.1446 47.0516C66.9908 47.1402 66.8165 47.1867 66.6391 47.1865C66.4619 47.187 66.2877 47.1404 66.1345 47.0515L65.5453 46.7109C65.2634 46.9528 64.9392 47.1405 64.5891 47.2647V47.9434C64.5891 48.211 64.4828 48.4677 64.2935 48.657C64.1042 48.8463 63.8475 48.9526 63.5799 48.9526C63.3122 48.9526 63.0555 48.8463 62.8662 48.657C62.677 48.4677 62.5706 48.211 62.5706 47.9434V47.2647C62.2205 47.1405 61.8963 46.9528 61.6144 46.7109L61.0253 47.0515C60.872 47.1404 60.6979 47.187 60.5207 47.1865C60.2984 47.1865 60.0824 47.1133 59.906 46.978C59.7297 46.8428 59.6029 46.6531 59.5454 46.4384C59.4879 46.2237 59.5029 45.9961 59.5879 45.7908C59.673 45.5855 59.8235 45.414 60.016 45.303L60.6039 44.9636C60.5349 44.5985 60.5349 44.2237 60.6039 43.8585L60.016 43.5192C59.9012 43.4529 59.8006 43.3647 59.7199 43.2595C59.6392 43.1544 59.58 43.0343 59.5457 42.9063C59.5113 42.7783 59.5026 42.6447 59.5198 42.5133C59.5371 42.3819 59.5801 42.2551 59.6464 42.1403C59.7127 42.0255 59.8009 41.9249 59.9061 41.8442C60.0112 41.7635 60.1312 41.7043 60.2593 41.6699C60.3873 41.6356 60.5209 41.6268 60.6523 41.6441C60.7837 41.6614 60.9105 41.7044 61.0253 41.7707L61.6144 42.1113C61.8963 41.8694 62.2205 41.6817 62.5706 41.5575V40.8788C62.5706 40.6111 62.677 40.3544 62.8662 40.1652C63.0555 39.9759 63.3122 39.8696 63.5799 39.8696C63.8475 39.8696 64.1042 39.9759 64.2935 40.1652C64.4828 40.3544 64.5891 40.6111 64.5891 40.8788V41.5575C64.9392 41.6817 65.2634 41.8694 65.5453 42.1113L66.1345 41.7707C66.2493 41.7044 66.376 41.6614 66.5075 41.6441C66.6389 41.6268 66.7724 41.6356 66.9005 41.6699C67.0285 41.7043 67.1485 41.7635 67.2537 41.8442C67.3588 41.9249 67.4471 42.0255 67.5133 42.1403C67.5796 42.2551 67.6226 42.3819 67.6399 42.5133C67.6572 42.6447 67.6484 42.7783 67.6141 42.9063C67.5798 43.0343 67.5206 43.1544 67.4399 43.2595C67.3591 43.3647 67.2585 43.4529 67.1437 43.5192L66.5558 43.8585C66.6248 44.2237 66.6248 44.5985 66.5558 44.9636L67.1437 45.303C67.2586 45.3691 67.3594 45.4573 67.4403 45.5624C67.5211 45.6675 67.5805 45.7875 67.6149 45.9156C67.6493 46.0436 67.6582 46.1772 67.641 46.3087C67.6238 46.4402 67.5808 46.567 67.5146 46.6818ZM63.5811 45.4203C63.7807 45.4203 63.9759 45.3611 64.1418 45.2502C64.3078 45.1393 64.4372 44.9817 64.5135 44.7973C64.5899 44.6129 64.6099 44.41 64.571 44.2142C64.532 44.0184 64.4359 43.8386 64.2948 43.6975C64.1536 43.5563 63.9738 43.4602 63.778 43.4212C63.5823 43.3823 63.3793 43.4023 63.1949 43.4787C63.0105 43.5551 62.8529 43.6844 62.742 43.8504C62.6311 44.0164 62.5719 44.2115 62.5719 44.4111C62.5719 44.6787 62.6782 44.9354 62.8675 45.1247C63.0568 45.314 63.3135 45.4203 63.5811 45.4203Z" fill="url(#paint0_linear_0_4)"/>
</g>
<defs>
<filter id="filter0_di_0_4" x="0" y="0" width="106" height="98.9093" filterUnits="userSpaceOnUse" color-interpolation-filters="sRGB">
<feFlood flood-opacity="0" result="BackgroundImageFix"/>
<feColorMatrix in="SourceAlpha" type="matrix" values="0 0 0 0 0 0 0 0 0 0 0 0 0 0 0 0 0 0 127 0" result="hardAlpha"/>
<feOffset dy="3.5"/>
<feGaussianBlur stdDeviation="9.5"/>
<feComposite in2="hardAlpha" operator="out"/>
<feColorMatrix type="matrix" values="0 0 0 0 0.281906 0 0 0 0 0.251319 0 0 0 0 0.320833 0 0 0 1 0"/>
<feBlend mode="normal" in2="BackgroundImageFix" result="effect1_dropShadow_0_4"/>
<feBlend mode="normal" in="SourceGraphic" in2="effect1_dropShadow_0_4" result="shape"/>
<feColorMatrix in="SourceAlpha" type="matrix" values="0 0 0 0 0 0 0 0 0 0 0 0 0 0 0 0 0 0 127 0" result="hardAlpha"/>
<feOffset dx="1" dy="1"/>
<feGaussianBlur stdDeviation="1"/>
<feComposite in2="hardAlpha" operator="arithmetic" k2="-1" k3="1"/>
<feColorMatrix type="matrix" values="0 0 0 0 0 0 0 0 0 0 0 0 0 0 0 0 0 0 0.25 0"/>
<feBlend mode="normal" in2="shape" result="effect2_innerShadow_0_4"/>
</filter>
<linearGradient id="paint0_linear_0_4" x1="53.0001" y1="31.2861" x2="53.0001" y2="53.4941" gradientUnits="userSpaceOnUse">
<stop stop-color="white"/>
<stop offset="1" stop-color="#57575F"/>
</linearGradient>
</defs>
</svg>
