<svg width="30" height="30" viewBox="0 0 30 30" fill="none" xmlns="http://www.w3.org/2000/svg">
<path d="M30 15C30 15.3315 29.8683 15.6495 29.6339 15.8839C29.3995 16.1183 29.0815 16.25 28.75 16.25H16.25V28.75C16.25 29.0815 16.1183 29.3995 15.8839 29.6339C15.6495 29.8683 15.3315 30 15 30C14.6685 30 14.3505 29.8683 14.1161 29.6339C13.8817 29.3995 13.75 29.0815 13.75 28.75V16.25H1.25C0.918479 16.25 0.600537 16.1183 0.366117 15.8839C0.131696 15.6495 0 15.3315 0 15C0 14.6685 0.131696 14.3505 0.366117 14.1161C0.600537 13.8817 0.918479 13.75 1.25 13.75H13.75V1.25C13.75 0.918479 13.8817 0.600537 14.1161 0.366117C14.3505 0.131696 14.6685 0 15 0C15.3315 0 15.6495 0.131696 15.8839 0.366117C16.1183 0.600537 16.25 0.918479 16.25 1.25V13.75H28.75C29.0815 13.75 29.3995 13.8817 29.6339 14.1161C29.8683 14.3505 30 14.6685 30 15Z" fill="white"/>
</svg>
