<svg width="26" height="25" viewBox="0 0 26 25" fill="none" xmlns="http://www.w3.org/2000/svg">
<path d="M24.6341 22.8654C24.7502 22.9816 24.8424 23.1194 24.9052 23.2712C24.9681 23.4229 25.0004 23.5855 25.0004 23.7498C25.0004 23.914 24.9681 24.0766 24.9052 24.2284C24.8424 24.3801 24.7502 24.518 24.6341 24.6341C24.518 24.7502 24.3801 24.8424 24.2284 24.9052C24.0766 24.9681 23.914 25.0004 23.7498 25.0004C23.5855 25.0004 23.4229 24.9681 23.2712 24.9052C23.1194 24.8424 22.9816 24.7502 22.8654 24.6341L12.5002 14.2673L2.13499 24.6341C1.90044 24.8687 1.58234 25.0004 1.25065 25.0004C0.918954 25.0004 0.600847 24.8687 0.366306 24.6341C0.131764 24.3996 6.53844e-09 24.0815 0 23.7498C-6.53844e-09 23.4181 0.131764 23.1 0.366306 22.8654L10.7331 12.5002L0.366306 2.13499C0.131764 1.90044 0 1.58234 0 1.25065C0 0.918954 0.131764 0.600847 0.366306 0.366306C0.600847 0.131764 0.918954 0 1.25065 0C1.58234 0 1.90044 0.131764 2.13499 0.366306L12.5002 10.7331L22.8654 0.366306C23.1 0.131764 23.4181 -6.53844e-09 23.7498 0C24.0815 6.53844e-09 24.3996 0.131764 24.6341 0.366306C24.8687 0.600847 25.0004 0.918954 25.0004 1.25065C25.0004 1.58234 24.8687 1.90044 24.6341 2.13499L14.2673 12.5002L24.6341 22.8654Z" fill="white"/>
</svg>
