<svg width="104" height="104" viewBox="0 0 104 104" fill="none" xmlns="http://www.w3.org/2000/svg">
<g filter="url(#filter0_di_0_5)">
<path d="M65 44H63.9575C63.7175 41.1743 62.486 38.5245 60.4808 36.5192C58.4755 34.514 55.8257 33.2825 53 33.0425V32C53 31.7348 52.8946 31.4804 52.7071 31.2929C52.5196 31.1054 52.2652 31 52 31C51.7348 31 51.4804 31.1054 51.2929 31.2929C51.1054 31.4804 51 31.7348 51 32V33.0425C48.1743 33.2825 45.5245 34.514 43.5192 36.5192C41.514 38.5245 40.2825 41.1743 40.0425 44H39C38.7348 44 38.4804 44.1054 38.2929 44.2929C38.1054 44.4804 38 44.7348 38 45C38 45.2652 38.1054 45.5196 38.2929 45.7071C38.4804 45.8946 38.7348 46 39 46H40.0425C40.2825 48.8257 41.514 51.4755 43.5192 53.4808C45.5245 55.486 48.1743 56.7175 51 56.9575V58C51 58.2652 51.1054 58.5196 51.2929 58.7071C51.4804 58.8946 51.7348 59 52 59C52.2652 59 52.5196 58.8946 52.7071 58.7071C52.8946 58.5196 53 58.2652 53 58V56.9575C55.8257 56.7175 58.4755 55.486 60.4808 53.4808C62.486 51.4755 63.7175 48.8257 63.9575 46H65C65.2652 46 65.5196 45.8946 65.7071 45.7071C65.8946 45.5196 66 45.2652 66 45C66 44.7348 65.8946 44.4804 65.7071 44.2929C65.5196 44.1054 65.2652 44 65 44ZM61 46H61.95C61.7159 48.2939 60.6978 50.4369 59.0673 52.0673C57.4369 53.6978 55.2939 54.7159 53 54.95V54C53 53.7348 52.8946 53.4804 52.7071 53.2929C52.5196 53.1054 52.2652 53 52 53C51.7348 53 51.4804 53.1054 51.2929 53.2929C51.1054 53.4804 51 53.7348 51 54V54.95C48.7061 54.7159 46.5631 53.6978 44.9327 52.0673C43.3022 50.4369 42.2841 48.2939 42.05 46H43C43.2652 46 43.5196 45.8946 43.7071 45.7071C43.8946 45.5196 44 45.2652 44 45C44 44.7348 43.8946 44.4804 43.7071 44.2929C43.5196 44.1054 43.2652 44 43 44H42.05C42.2841 41.7061 43.3022 39.5631 44.9327 37.9327C46.5631 36.3022 48.7061 35.2841 51 35.05V36C51 36.2652 51.1054 36.5196 51.2929 36.7071C51.4804 36.8946 51.7348 37 52 37C52.2652 37 52.5196 36.8946 52.7071 36.7071C52.8946 36.5196 53 36.2652 53 36V35.05C55.2939 35.2841 57.4369 36.3022 59.0673 37.9327C60.6978 39.5631 61.7159 41.7061 61.95 44H61C60.7348 44 60.4804 44.1054 60.2929 44.2929C60.1054 44.4804 60 44.7348 60 45C60 45.2652 60.1054 45.5196 60.2929 45.7071C60.4804 45.8946 60.7348 46 61 46ZM57 45C57 45.9889 56.7068 46.9556 56.1573 47.7779C55.6079 48.6001 54.827 49.241 53.9134 49.6194C52.9998 49.9978 51.9945 50.0969 51.0245 49.9039C50.0546 49.711 49.1637 49.2348 48.4645 48.5355C47.7652 47.8363 47.289 46.9454 47.0961 45.9755C46.9031 45.0055 47.0022 44.0002 47.3806 43.0866C47.759 42.173 48.3999 41.3921 49.2221 40.8427C50.0444 40.2932 51.0111 40 52 40C53.3261 40 54.5979 40.5268 55.5355 41.4645C56.4732 42.4021 57 43.6739 57 45Z" fill="url(#paint0_linear_0_5)"/>
</g>
<defs>
<filter id="filter0_di_0_5" x="0" y="0" width="104" height="104" filterUnits="userSpaceOnUse" color-interpolation-filters="sRGB">
<feFlood flood-opacity="0" result="BackgroundImageFix"/>
<feColorMatrix in="SourceAlpha" type="matrix" values="0 0 0 0 0 0 0 0 0 0 0 0 0 0 0 0 0 0 127 0" result="hardAlpha"/>
<feOffset dy="3.5"/>
<feGaussianBlur stdDeviation="9.5"/>
<feComposite in2="hardAlpha" operator="out"/>
<feColorMatrix type="matrix" values="0 0 0 0 0.281906 0 0 0 0 0.251319 0 0 0 0 0.320833 0 0 0 1 0"/>
<feBlend mode="normal" in2="BackgroundImageFix" result="effect1_dropShadow_0_5"/>
<feBlend mode="normal" in="SourceGraphic" in2="effect1_dropShadow_0_5" result="shape"/>
<feColorMatrix in="SourceAlpha" type="matrix" values="0 0 0 0 0 0 0 0 0 0 0 0 0 0 0 0 0 0 127 0" result="hardAlpha"/>
<feOffset dx="1" dy="1"/>
<feGaussianBlur stdDeviation="1"/>
<feComposite in2="hardAlpha" operator="arithmetic" k2="-1" k3="1"/>
<feColorMatrix type="matrix" values="0 0 0 0 0 0 0 0 0 0 0 0 0 0 0 0 0 0 0.25 0"/>
<feBlend mode="normal" in2="shape" result="effect2_innerShadow_0_5"/>
</filter>
<linearGradient id="paint0_linear_0_5" x1="52" y1="31" x2="52" y2="59" gradientUnits="userSpaceOnUse">
<stop stop-color="white"/>
<stop offset="1" stop-color="#57575F"/>
</linearGradient>
</defs>
</svg>
