<svg width="33" height="33" viewBox="0 0 33 33" fill="none" xmlns="http://www.w3.org/2000/svg">
<path d="M17.7692 1.26923V6.34615C17.7692 6.68277 17.6355 7.00561 17.3975 7.24364C17.1595 7.48166 16.8366 7.61538 16.5 7.61538C16.1634 7.61538 15.8405 7.48166 15.6025 7.24364C15.3645 7.00561 15.2308 6.68277 15.2308 6.34615V1.26923C15.2308 0.93261 15.3645 0.609776 15.6025 0.371749C15.8405 0.133722 16.1634 0 16.5 0C16.8366 0 17.1595 0.133722 17.3975 0.371749C17.6355 0.609776 17.7692 0.93261 17.7692 1.26923ZM23.6791 10.5901C23.8459 10.5901 24.0111 10.5571 24.1652 10.4931C24.3193 10.4291 24.4592 10.3354 24.5771 10.2173L28.1674 6.62856C28.4056 6.3904 28.5394 6.06738 28.5394 5.73058C28.5394 5.39377 28.4056 5.07076 28.1674 4.8326C27.9292 4.59444 27.6062 4.46064 27.2694 4.46064C26.9326 4.46064 26.6096 4.59444 26.3714 4.8326L22.7827 8.42293C22.6051 8.60035 22.4841 8.82644 22.435 9.07264C22.3859 9.31883 22.4109 9.57405 22.5068 9.80603C22.6028 10.038 22.7653 10.2363 22.974 10.3759C23.1827 10.5155 23.428 10.59 23.6791 10.5901ZM31.7308 15.2308H26.6538C26.3172 15.2308 25.9944 15.3645 25.7564 15.6025C25.5183 15.8405 25.3846 16.1634 25.3846 16.5C25.3846 16.8366 25.5183 17.1595 25.7564 17.3975C25.9944 17.6355 26.3172 17.7692 26.6538 17.7692H31.7308C32.0674 17.7692 32.3902 17.6355 32.6283 17.3975C32.8663 17.1595 33 16.8366 33 16.5C33 16.1634 32.8663 15.8405 32.6283 15.6025C32.3902 15.3645 32.0674 15.2308 31.7308 15.2308ZM24.5771 22.7827C24.3371 22.5547 24.0176 22.4295 23.6866 22.4337C23.3556 22.438 23.0394 22.5713 22.8054 22.8054C22.5713 23.0394 22.438 23.3556 22.4337 23.6866C22.4295 24.0176 22.5547 24.3371 22.7827 24.5771L26.3714 28.1674C26.6096 28.4056 26.9326 28.5394 27.2694 28.5394C27.6062 28.5394 27.9292 28.4056 28.1674 28.1674C28.4056 27.9292 28.5394 27.6062 28.5394 27.2694C28.5394 26.9326 28.4056 26.6096 28.1674 26.3714L24.5771 22.7827ZM16.5 25.3846C16.1634 25.3846 15.8405 25.5183 15.6025 25.7564C15.3645 25.9944 15.2308 26.3172 15.2308 26.6538V31.7308C15.2308 32.0674 15.3645 32.3902 15.6025 32.6283C15.8405 32.8663 16.1634 33 16.5 33C16.8366 33 17.1595 32.8663 17.3975 32.6283C17.6355 32.3902 17.7692 32.0674 17.7692 31.7308V26.6538C17.7692 26.3172 17.6355 25.9944 17.3975 25.7564C17.1595 25.5183 16.8366 25.3846 16.5 25.3846ZM8.42293 22.7827L4.8326 26.3714C4.59444 26.6096 4.46064 26.9326 4.46064 27.2694C4.46064 27.6062 4.59444 27.9292 4.8326 28.1674C5.07076 28.4056 5.39377 28.5394 5.73058 28.5394C6.06738 28.5394 6.3904 28.4056 6.62856 28.1674L10.2173 24.5771C10.4453 24.3371 10.5705 24.0176 10.5663 23.6866C10.562 23.3556 10.4287 23.0394 10.1946 22.8054C9.96058 22.5713 9.64436 22.438 9.31339 22.4337C8.98243 22.4295 8.6629 22.5547 8.42293 22.7827ZM7.61538 16.5C7.61538 16.1634 7.48166 15.8405 7.24364 15.6025C7.00561 15.3645 6.68277 15.2308 6.34615 15.2308H1.26923C0.93261 15.2308 0.609776 15.3645 0.371749 15.6025C0.133722 15.8405 0 16.1634 0 16.5C0 16.8366 0.133722 17.1595 0.371749 17.3975C0.609776 17.6355 0.93261 17.7692 1.26923 17.7692H6.34615C6.68277 17.7692 7.00561 17.6355 7.24364 17.3975C7.48166 17.1595 7.61538 16.8366 7.61538 16.5ZM6.62856 4.8326C6.3904 4.59444 6.06738 4.46064 5.73058 4.46064C5.39377 4.46064 5.07076 4.59444 4.8326 4.8326C4.59444 5.07076 4.46064 5.39377 4.46064 5.73058C4.46064 6.06738 4.59444 6.3904 4.8326 6.62856L8.42293 10.2173C8.6629 10.4453 8.98243 10.5705 9.31339 10.5663C9.64436 10.562 9.96058 10.4287 10.1946 10.1946C10.4287 9.96058 10.562 9.64436 10.5663 9.31339C10.5705 8.98243 10.4453 8.6629 10.2173 8.42293L6.62856 4.8326Z" fill="url(#paint0_linear_0_4)"/>
<defs>
<linearGradient id="paint0_linear_0_4" x1="16.5" y1="0" x2="16.5" y2="33" gradientUnits="userSpaceOnUse">
<stop stop-color="white"/>
<stop offset="1" stop-color="#57575F"/>
</linearGradient>
</defs>
</svg>
