<svg width="99" height="102" viewBox="0 0 99 102" fill="none" xmlns="http://www.w3.org/2000/svg">
<g filter="url(#filter0_di_0_6)">
<path d="M41 40V48C41 48.2652 40.8946 48.5196 40.7071 48.7071C40.5196 48.8946 40.2652 49 40 49H39C38.7348 49 38.4804 48.8946 38.2929 48.7071C38.1054 48.5196 38 48.2652 38 48V40C38 39.7348 38.1054 39.4804 38.2929 39.2929C38.4804 39.1054 38.7348 39 39 39H40C40.2652 39 40.5196 39.1054 40.7071 39.2929C40.8946 39.4804 41 39.7348 41 40ZM45 31H44C43.7348 31 43.4804 31.1054 43.2929 31.2929C43.1054 31.4804 43 31.7348 43 32V56C43 56.2652 43.1054 56.5196 43.2929 56.7071C43.4804 56.8946 43.7348 57 44 57H45C45.2652 57 45.5196 56.8946 45.7071 56.7071C45.8946 56.5196 46 56.2652 46 56V32C46 31.7348 45.8946 31.4804 45.7071 31.2929C45.5196 31.1054 45.2652 31 45 31ZM50 35H49C48.7348 35 48.4804 35.1054 48.2929 35.2929C48.1054 35.4804 48 35.7348 48 36V52C48 52.2652 48.1054 52.5196 48.2929 52.7071C48.4804 52.8946 48.7348 53 49 53H50C50.2652 53 50.5196 52.8946 50.7071 52.7071C50.8946 52.5196 51 52.2652 51 52V36C51 35.7348 50.8946 35.4804 50.7071 35.2929C50.5196 35.1054 50.2652 35 50 35ZM55 39H54C53.7348 39 53.4804 39.1054 53.2929 39.2929C53.1054 39.4804 53 39.7348 53 40V48C53 48.2652 53.1054 48.5196 53.2929 48.7071C53.4804 48.8946 53.7348 49 54 49H55C55.2652 49 55.5196 48.8946 55.7071 48.7071C55.8946 48.5196 56 48.2652 56 48V40C56 39.7348 55.8946 39.4804 55.7071 39.2929C55.5196 39.1054 55.2652 39 55 39ZM60 37H59C58.7348 37 58.4804 37.1054 58.2929 37.2929C58.1054 37.4804 58 37.7348 58 38V50C58 50.2652 58.1054 50.5196 58.2929 50.7071C58.4804 50.8946 58.7348 51 59 51H60C60.2652 51 60.5196 50.8946 60.7071 50.7071C60.8946 50.5196 61 50.2652 61 50V38C61 37.7348 60.8946 37.4804 60.7071 37.2929C60.5196 37.1054 60.2652 37 60 37Z" fill="url(#paint0_linear_0_6)"/>
</g>
<defs>
<filter id="filter0_di_0_6" x="0" y="0" width="99" height="102" filterUnits="userSpaceOnUse" color-interpolation-filters="sRGB">
<feFlood flood-opacity="0" result="BackgroundImageFix"/>
<feColorMatrix in="SourceAlpha" type="matrix" values="0 0 0 0 0 0 0 0 0 0 0 0 0 0 0 0 0 0 127 0" result="hardAlpha"/>
<feOffset dy="3.5"/>
<feGaussianBlur stdDeviation="9.5"/>
<feComposite in2="hardAlpha" operator="out"/>
<feColorMatrix type="matrix" values="0 0 0 0 0.281906 0 0 0 0 0.251319 0 0 0 0 0.320833 0 0 0 1 0"/>
<feBlend mode="normal" in2="BackgroundImageFix" result="effect1_dropShadow_0_6"/>
<feBlend mode="normal" in="SourceGraphic" in2="effect1_dropShadow_0_6" result="shape"/>
<feColorMatrix in="SourceAlpha" type="matrix" values="0 0 0 0 0 0 0 0 0 0 0 0 0 0 0 0 0 0 127 0" result="hardAlpha"/>
<feOffset dx="1" dy="1"/>
<feGaussianBlur stdDeviation="1"/>
<feComposite in2="hardAlpha" operator="arithmetic" k2="-1" k3="1"/>
<feColorMatrix type="matrix" values="0 0 0 0 0 0 0 0 0 0 0 0 0 0 0 0 0 0 0.25 0"/>
<feBlend mode="normal" in2="shape" result="effect2_innerShadow_0_6"/>
</filter>
<linearGradient id="paint0_linear_0_6" x1="49.5" y1="31" x2="49.5" y2="57" gradientUnits="userSpaceOnUse">
<stop stop-color="white"/>
<stop offset="1" stop-color="#57575F"/>
</linearGradient>
</defs>
</svg>
