<svg width="25" height="18" viewBox="0 0 25 18" fill="none" xmlns="http://www.w3.org/2000/svg">
<path d="M24.7067 1.70796L8.70758 17.7071C8.61472 17.8001 8.50443 17.8738 8.38304 17.9241C8.26165 17.9745 8.13153 18.0004 8.00012 18.0004C7.86871 18.0004 7.73859 17.9745 7.6172 17.9241C7.49581 17.8738 7.38553 17.8001 7.29266 17.7071L0.29304 10.7075C0.10541 10.5198 0 10.2654 0 10C0 9.73466 0.10541 9.48018 0.29304 9.29255C0.480671 9.10492 0.735152 8.99951 1.0005 8.99951C1.26585 8.99951 1.52033 9.10492 1.70796 9.29255L8.00012 15.586L23.2918 0.29304C23.4794 0.105409 23.7339 -1.97701e-09 23.9993 0C24.2646 1.97701e-09 24.5191 0.105409 24.7067 0.29304C24.8943 0.48067 24.9998 0.735152 24.9998 1.0005C24.9998 1.26585 24.8943 1.52033 24.7067 1.70796Z" fill="white"/>
</svg>
